<svg width="137" height="36" viewBox="0 0 137 36" fill="none" xmlns="http://www.w3.org/2000/svg">
<path d="M0.35075 11.048C0.35075 7.656 1.58275 5.08 4.04675 3.32C6.54275 1.528 9.71075 0.631999 13.5508 0.631999C18.3188 0.631999 22.4308 1.56 25.8868 3.416V13.016C22.4308 10.808 18.7188 9.736 14.7508 9.8C12.7668 9.8 11.7748 10.296 11.7748 11.288C11.7748 11.736 12.0788 12.152 12.6868 12.536C13.2948 12.888 14.0628 13.208 14.9908 13.496C15.9508 13.784 17.0068 14.104 18.1588 14.456C19.3428 14.776 20.5108 15.208 21.6628 15.752C22.8468 16.296 23.9028 16.936 24.8308 17.672C25.7908 18.408 26.5748 19.4 27.1828 20.648C27.7908 21.896 28.0948 23.304 28.0948 24.872C28.0948 32.136 23.3908 35.768 13.9828 35.768C8.86275 35.768 4.41475 34.712 0.63875 32.6V22.568C4.63875 25.192 8.71875 26.504 12.8788 26.504C14.2868 26.504 15.2628 26.376 15.8068 26.12C16.3828 25.864 16.6708 25.448 16.6708 24.872C16.6708 24.36 16.2708 23.896 15.4708 23.48C14.6708 23.032 13.6628 22.664 12.4468 22.376C11.2308 22.056 9.91875 21.608 8.51075 21.032C7.10275 20.456 5.79075 19.8 4.57475 19.064C3.35875 18.328 2.35075 17.272 1.55075 15.896C0.75075 14.488 0.35075 12.872 0.35075 11.048ZM51.9395 1.4H62.9795V35H51.9395V23.048H42.8195V35H31.7315V1.4H42.8195V13.352H51.9395V1.4ZM71.4196 30.824C68.2516 27.496 66.6676 23.288 66.6676 18.2C66.6676 13.112 68.2516 8.92 71.4196 5.624C74.5876 2.296 79.0676 0.631999 84.8596 0.631999C90.6516 0.631999 95.1316 2.296 98.2996 5.624C101.468 8.92 103.052 13.112 103.052 18.2C103.052 23.288 101.468 27.496 98.2996 30.824C95.1316 34.12 90.6516 35.768 84.8596 35.768C79.0676 35.768 74.5876 34.12 71.4196 30.824ZM89.8516 23.72C91.0676 22.376 91.6756 20.536 91.6756 18.2C91.6756 15.864 91.0676 14.024 89.8516 12.68C88.6676 11.336 87.0036 10.664 84.8596 10.664C82.7156 10.664 81.0356 11.336 79.8196 12.68C78.6356 14.024 78.0436 15.864 78.0436 18.2C78.0436 20.536 78.6356 22.376 79.8196 23.72C81.0356 25.064 82.7156 25.736 84.8596 25.736C87.0036 25.736 88.6676 25.064 89.8516 23.72ZM106.732 1.4H121.42C131.468 1.4 136.492 5.544 136.492 13.832C136.492 22.088 131.468 26.216 121.42 26.216H117.82V35H106.732V1.4ZM125.5 13.832C125.5 11.624 124.108 10.52 121.324 10.52H117.82V17.096H121.324C124.108 17.096 125.5 16.008 125.5 13.832Z" fill="#226CDA"/>
</svg>
